<svg xmlns="http://www.w3.org/2000/svg" xmlns:xlink="http://www.w3.org/1999/xlink" width="145.811" height="36.284" viewBox="0 0 145.811 36.284"><defs><linearGradient id="a" x1="0.094" y1="0.302" x2="1.248" y2="0.821" gradientUnits="objectBoundingBox"><stop offset="0" stop-color="#055b8f"/><stop offset="1" stop-color="#79cde4"/></linearGradient><linearGradient id="b" x1="0.147" y1="0.146" x2="0.853" y2="0.854" xlink:href="#a"/><linearGradient id="c" x1="0.146" y1="0.149" x2="0.854" y2="0.864" xlink:href="#a"/></defs><g transform="translate(136 -48)"><g transform="translate(-136 48)"><path d="M746.709,155.157h-.27a.184.184,0,0,1-.184-.184v-4.1h-1.332a.184.184,0,0,1-.184-.184v-.246a.184.184,0,0,1,.184-.184h3.3a.184.184,0,0,1,.184.184v.246a.184.184,0,0,1-.184.184h-1.333v4.1a.183.183,0,0,1-.185.184Z" transform="translate(-608.045 -122.68)" fill="#636363"/><path d="M771.284,155.157h-.259a.184.184,0,0,1-.184-.184V151.5l-1.729,3.135a.184.184,0,0,1-.161.1h-.129a.184.184,0,0,1-.161-.1l-1.733-3.135v3.475a.184.184,0,0,1-.184.184h-.251a.184.184,0,0,1-.184-.184v-4.528a.184.184,0,0,1,.184-.184h.352a.184.184,0,0,1,.162.094l1.878,3.41,1.883-3.41a.183.183,0,0,1,.161-.094h.354a.184.184,0,0,1,.184.184v4.53A.184.184,0,0,1,771.284,155.157Z" transform="translate(-625.656 -122.68)" fill="#636363"/><path d="M261.46,77.636c-3.084-.077-4.919.349-6.975,2.188V77.978h0a1.5,1.5,0,0,0-3,0h0V94.512a.485.485,0,0,0,.485.485h2.019a.485.485,0,0,0,.485-.485V82.675a8.1,8.1,0,0,1,5.833-2.417c2.4,0,3.911,1.634,3.911,4.528v9.728a.485.485,0,0,0,.483.485h2a.485.485,0,0,0,.483-.485V83.9C267.2,79.85,264.865,77.724,261.46,77.636Z" transform="translate(-205.33 -62.442)" fill="#848484"/><path d="M363.125,49.874a7.4,7.4,0,0,1,5.1,1.865,2.105,2.105,0,0,0,2.436.246h.013a2.127,2.127,0,0,0,.266-3.52,12.61,12.61,0,0,0-7.847-2.735,12.255,12.255,0,1,0,0,24.505,12.665,12.665,0,0,0,7.825-2.706,2.125,2.125,0,0,0-.26-3.523h0a2.1,2.1,0,0,0-2.43.24,7.416,7.416,0,0,1-5.1,1.835,7.581,7.581,0,0,1-5.65-2.349,7.992,7.992,0,0,1-2.28-5.752,7.86,7.86,0,0,1,2.28-5.717A7.475,7.475,0,0,1,363.125,49.874Z" transform="translate(-286.246 -37.334)" fill="#636363"/><path d="M530.194,95.672l-.037-.02a1.72,1.72,0,0,0-1.935.151,5.336,5.336,0,1,1-.18-8.526,1.777,1.777,0,0,0,1.946.167l.024-.013a1.738,1.738,0,0,0,.184-2.924,9.361,9.361,0,0,0-5.459-1.757,9.062,9.062,0,0,0-6.534,2.588,8.64,8.64,0,0,0,0,12.531,9.064,9.064,0,0,0,6.534,2.586,9.346,9.346,0,0,0,5.69-1.907,1.736,1.736,0,0,0-.229-2.876Z" transform="translate(-420.89 -67.562)" fill="#636363"/><path d="M658.821,82.78A8.832,8.832,0,0,0,650,91.631a8.535,8.535,0,0,0,2.621,6.263,8.739,8.739,0,0,0,6.373,2.586,10.145,10.145,0,0,0,5.947-1.823,1.389,1.389,0,0,0,.132-2.177l-.081-.072a1.4,1.4,0,0,0-1.749-.075,6.643,6.643,0,0,1-3.909,1.151,5.552,5.552,0,0,1-3.671-1.327,4.723,4.723,0,0,1-1.634-3.4h12.49a1.123,1.123,0,0,0,1.123-1.123,8.733,8.733,0,0,0-2.386-6.3A8.436,8.436,0,0,0,658.821,82.78Zm-4.772,7.966a4.937,4.937,0,0,1,4.833-5,4.7,4.7,0,0,1,4.868,5Z" transform="translate(-530.695 -67.586)" fill="#636363"/><path d="M222.223,38.88a1.593,1.593,0,0,0-1.593,1.593v23.34a.485.485,0,0,0,.485.485h2.215a.485.485,0,0,0,.485-.485V40.471h0A1.593,1.593,0,0,0,222.223,38.88Z" transform="translate(-180.134 -31.744)" fill="#848484"/><path d="M481.436,73.35a2.074,2.074,0,0,0-2.076,2.072V91.956a.485.485,0,0,0,.485.485h3.183a.485.485,0,0,0,.485-.485V75.422A2.074,2.074,0,0,0,481.436,73.35Z" transform="translate(-391.375 -59.887)" fill="#636363"/><path d="M615.956,44.32a2.076,2.076,0,0,0-2.076,2.072,2.3,2.3,0,0,0,.022.255V68.254a.486.486,0,0,0,.485.485h3.15a.485.485,0,0,0,.485-.485V46.647a1.931,1.931,0,0,0,.016-.253,2.074,2.074,0,0,0-2.081-2.074Z" transform="translate(-501.204 -36.185)" fill="#636363"/><ellipse cx="2.076" cy="2.072" rx="2.076" ry="2.072" transform="translate(87.985 8.135)" fill="#636363"/><path d="M81.041,94.156a.474.474,0,0,0-.633-.519c-4.728,1.971-7.461,6.791-7.893,7.593a.468.468,0,0,0-.057.242l.332,10.646v.04a18.087,18.087,0,0,0,4.431.551,18.275,18.275,0,0,0,2.728-.206.986.986,0,0,0,.029-.273,135.059,135.059,0,0,1,1.063-18.074Z" transform="translate(-59.159 -76.425)" fill="url(#a)"/><ellipse cx="5.176" cy="5.165" rx="5.176" ry="5.165" transform="translate(12.89 5.523)" fill="url(#b)"/><path d="M31.621,30.144l.077-.086c.152-.184.3-.367.452-.551l.011-.015A18.156,18.156,0,0,0,18.066,0,18.163,18.163,0,0,0,3.886,29.389l.04.05c.1.134.213.264.321.395l.147.173c.1.117.2.231.3.345s.184.206.284.307L5,30.676a18.072,18.072,0,0,0,7.32,4.677V32A15.081,15.081,0,0,1,18.066,3.04a15.077,15.077,0,0,1,4.11,29.542v3.238a18.028,18.028,0,0,0,8.627-4.8c.073-.075.147-.149.218-.224s.184-.184.259-.273C31.4,30.4,31.509,30.271,31.621,30.144Z" transform="translate(0)" fill="url(#c)"/></g></g></svg>